HIERARCHY
ROOT Hips
{
	OFFSET 1.531230 91.784000 0.210406
	CHANNELS 6 Xposition Yposition Zposition Zrotation Yrotation Xrotation 
	JOINT Spine
	{
		OFFSET 0.000000 9.923500 -1.227300
		CHANNELS 3 Zrotation Yrotation Xrotation
		JOINT Spine1
		{
			OFFSET -0.000100 11.645400 -1.422300
			CHANNELS 3 Zrotation Yrotation Xrotation
			JOINT Spine2
			{
				OFFSET 0.000100 13.360200 -1.626500
				CHANNELS 3 Zrotation Yrotation Xrotation
				JOINT Neck
				{
					OFFSET 0.000000 15.032500 0.792900
					CHANNELS 3 Zrotation Yrotation Xrotation
					JOINT Head
					{
						OFFSET 0.000000 10.321800 3.142400
						CHANNELS 3 Zrotation Yrotation Xrotation
						JOINT HeadTop_End
						{
							OFFSET 0.000200 18.474700 6.636400
							CHANNELS 3 Zrotation Yrotation Xrotation
							End Site
							{
								OFFSET 0.000000 0.000000 0.000000
							}
						}
						JOINT LeftEye
						{
							OFFSET 2.947900 7.681700 9.120700
							CHANNELS 3 Zrotation Yrotation Xrotation
							End Site
							{
								OFFSET 0.000000 0.000000 0.000000
							}
						}
						JOINT RightEye
						{
							OFFSET -2.944500 7.681700 9.120500
							CHANNELS 3 Zrotation Yrotation Xrotation
							End Site
							{
								OFFSET 0.000000 0.000000 0.000000
							}
						}
					}
				}
				JOINT LeftShoulder
				{
					OFFSET 6.105800 9.110400 0.705600
					CHANNELS 3 Zrotation Yrotation Xrotation
					JOINT LeftArm
					{
						OFFSET 12.655000 -0.265900 -2.600900
						CHANNELS 3 Zrotation Yrotation Xrotation
						JOINT LeftForeArm
						{
							OFFSET 27.404700 0.000000 0.000000
							CHANNELS 3 Zrotation Yrotation Xrotation
							JOINT LeftHand
							{
								OFFSET 27.614500 0.000000 0.000000
								CHANNELS 3 Zrotation Yrotation Xrotation
								JOINT LeftHandMiddle1
								{
									OFFSET 12.775500 0.000000 0.000000
									CHANNELS 3 Zrotation Yrotation Xrotation
									JOINT LeftHandMiddle2
									{
										OFFSET 3.614000 0.000000 0.000000
										CHANNELS 3 Zrotation Yrotation Xrotation
										JOINT LeftHandMiddle3
										{
											OFFSET 3.459800 0.000000 0.000000
											CHANNELS 3 Zrotation Yrotation Xrotation
											End Site
											{
												OFFSET 0.000000 0.000000 0.000000
											}
										}
									}
								}
								JOINT LeftHandThumb1
								{
									OFFSET 3.788800 -2.167000 3.003100
									CHANNELS 3 Zrotation Yrotation Xrotation
									JOINT LeftHandThumb2
									{
										OFFSET 3.675400 -2.122000 2.122000
										CHANNELS 3 Zrotation Yrotation Xrotation
										JOINT LeftHandThumb3
										{
											OFFSET 3.394400 -1.959700 1.959800
											CHANNELS 3 Zrotation Yrotation Xrotation
											End Site
											{
												OFFSET 0.000000 0.000000 0.000000
											}
										}
									}
								}
								JOINT LeftHandIndex1
								{
									OFFSET 12.266600 -0.231700 2.822100
									CHANNELS 3 Zrotation Yrotation Xrotation
									JOINT LeftHandIndex2
									{
										OFFSET 3.892000 0.000000 0.000000
										CHANNELS 3 Zrotation Yrotation Xrotation
										JOINT LeftHandIndex3
										{
											OFFSET 3.415200 0.000000 0.000000
											CHANNELS 3 Zrotation Yrotation Xrotation
											End Site
											{
												OFFSET 0.000000 0.000000 0.000000
											}
										}
									}
								}
								JOINT LeftHandRing1
								{
									OFFSET 12.147000 0.009900 -2.216600
									CHANNELS 3 Zrotation Yrotation Xrotation
									JOINT LeftHandRing2
									{
										OFFSET 3.601200 0.000000 0.000000
										CHANNELS 3 Zrotation Yrotation Xrotation
										JOINT LeftHandRing3
										{
											OFFSET 3.307300 0.000000 0.000000
											CHANNELS 3 Zrotation Yrotation Xrotation
											End Site
											{
												OFFSET 0.000000 0.000000 0.000000
											}
										}
									}
								}
								JOINT LeftHandPinky1
								{
									OFFSET 10.908200 -0.226400 -4.725800
									CHANNELS 3 Zrotation Yrotation Xrotation
									JOINT LeftHandPinky2
									{
										OFFSET 4.136700 0.000000 0.000000
										CHANNELS 3 Zrotation Yrotation Xrotation
										JOINT LeftHandPinky3
										{
											OFFSET 2.594800 0.000000 0.000000
											CHANNELS 3 Zrotation Yrotation Xrotation
											End Site
											{
												OFFSET 0.000000 0.000000 0.000000
											}
										}
									}
								}
							}
						}
					}
				}
				JOINT RightShoulder
				{
					OFFSET -6.105700 9.110500 0.705600
					CHANNELS 3 Zrotation Yrotation Xrotation
					JOINT RightArm
					{
						OFFSET -12.655000 -0.266000 -2.600900
						CHANNELS 3 Zrotation Yrotation Xrotation
						JOINT RightForeArm
						{
							OFFSET -27.404700 0.000000 0.000000
							CHANNELS 3 Zrotation Yrotation Xrotation
							JOINT RightHand
							{
								OFFSET -27.614500 0.000000 0.000000
								CHANNELS 3 Zrotation Yrotation Xrotation
								JOINT RightHandMiddle1
								{
									OFFSET -12.775500 0.000000 0.000000
									CHANNELS 3 Zrotation Yrotation Xrotation
									JOINT RightHandMiddle2
									{
										OFFSET -3.614000 0.000000 0.000000
										CHANNELS 3 Zrotation Yrotation Xrotation
										JOINT RightHandMiddle3
										{
											OFFSET -3.459800 0.000000 0.000000
											CHANNELS 3 Zrotation Yrotation Xrotation
											End Site
											{
												OFFSET 0.000000 0.000000 0.000000
											}
										}
									}
								}
								JOINT RightHandThumb1
								{
									OFFSET -3.788800 -2.167000 3.003100
									CHANNELS 3 Zrotation Yrotation Xrotation
									JOINT RightHandThumb2
									{
										OFFSET -3.675400 -2.122000 2.122000
										CHANNELS 3 Zrotation Yrotation Xrotation
										JOINT RightHandThumb3
										{
											OFFSET -3.394400 -1.959700 1.959800
											CHANNELS 3 Zrotation Yrotation Xrotation
											End Site
											{
												OFFSET 0.000000 0.000000 0.000000
											}
										}
									}
								}
								JOINT RightHandIndex1
								{
									OFFSET -12.266600 -0.231700 2.822100
									CHANNELS 3 Zrotation Yrotation Xrotation
									JOINT RightHandIndex2
									{
										OFFSET -3.892000 0.000000 0.000000
										CHANNELS 3 Zrotation Yrotation Xrotation
										JOINT RightHandIndex3
										{
											OFFSET -3.415200 0.000000 0.000000
											CHANNELS 3 Zrotation Yrotation Xrotation
											End Site
											{
												OFFSET 0.000000 0.000000 0.000000
											}
										}
									}
								}
								JOINT RightHandRing1
								{
									OFFSET -12.147000 0.009900 -2.216600
									CHANNELS 3 Zrotation Yrotation Xrotation
									JOINT RightHandRing2
									{
										OFFSET -3.601200 0.000000 0.000000
										CHANNELS 3 Zrotation Yrotation Xrotation
										JOINT RightHandRing3
										{
											OFFSET -3.307300 0.000000 0.000000
											CHANNELS 3 Zrotation Yrotation Xrotation
											End Site
											{
												OFFSET 0.000000 0.000000 0.000000
											}
										}
									}
								}
								JOINT RightHandPinky1
								{
									OFFSET -10.908200 -0.226400 -4.725800
									CHANNELS 3 Zrotation Yrotation Xrotation
									JOINT RightHandPinky2
									{
										OFFSET -4.136700 0.000000 0.000000
										CHANNELS 3 Zrotation Yrotation Xrotation
										JOINT RightHandPinky3
										{
											OFFSET -2.594800 0.000000 0.000000
											CHANNELS 3 Zrotation Yrotation Xrotation
											End Site
											{
												OFFSET 0.000000 0.000000 0.000000
											}
										}
									}
								}
							}
						}
					}
				}
			}
		}
	}
	JOINT RightUpLeg
	{
		OFFSET -9.124500 -6.656400 -0.055400
		CHANNELS 3 Zrotation Yrotation Xrotation
		JOINT RightLeg
		{
			OFFSET -0.244700 -40.595400 -0.514500
			CHANNELS 3 Zrotation Yrotation Xrotation
			JOINT RightFoot
			{
				OFFSET 0.244700 -42.047900 -2.060200
				CHANNELS 3 Zrotation Yrotation Xrotation
				JOINT RightToeBase
				{
					OFFSET -0.373400 -10.492200 12.640700
					CHANNELS 3 Zrotation Yrotation Xrotation
					End Site
					{
						OFFSET 0.000000 0.000000 0.000000
					}
				}
			}
		}
	}
	JOINT LeftUpLeg
	{
		OFFSET 9.124500 -6.656400 -0.055400
		CHANNELS 3 Zrotation Yrotation Xrotation
		JOINT LeftLeg
		{
			OFFSET 0.244700 -40.595400 -0.517000
			CHANNELS 3 Zrotation Yrotation Xrotation
			JOINT LeftFoot
			{
				OFFSET -0.244700 -42.048000 -2.057600
				CHANNELS 3 Zrotation Yrotation Xrotation
				JOINT LeftToeBase
				{
					OFFSET 0.373400 -10.492200 12.640700
					CHANNELS 3 Zrotation Yrotation Xrotation
					End Site
					{
						OFFSET 0.000000 0.000000 0.000000
					}
				}
			}
		}
	}
}
MOTION
Frames: 4
Frame Time: 0.016667
1.531230 91.784000 857.835406 1.542262 -2.133479 11.532904 1.268388 0.704172 3.007657 1.061913 1.611841 6.200133 1.058555 1.630485 6.195938 -1.719519 -1.146599 -3.619786 -6.972751 -0.874857 -11.103511 0.000000 0.000000 0.000000 0.000000 0.000000 0.000000 0.000000 0.000000 0.000000 -11.529200 2.520895 0.197799 -76.374102 -33.896190 55.215046 0.000003 -11.749000 -0.000005 -4.148540 -4.278428 -13.719176 0.015976 -0.001928 -0.000001 -0.016009 0.001943 0.000011 -0.000002 0.000015 -0.000013 17.743500 5.976706 3.403502 3.753209 20.975802 6.013661 3.218063 8.184517 0.480126 -0.000004 0.000009 0.000003 -0.000037 -0.000008 -0.000002 -0.000002 0.000004 -0.000003 -0.000004 0.000009 0.000003 -0.000032 0.000006 -0.000008 -0.000002 0.000005 0.000002 0.510846 4.054290 0.018077 -0.510872 -4.054280 0.018080 -0.000002 0.000003 -0.000000 9.954019 -1.886877 0.280357 88.068248 57.433092 93.813858 -179.999985 83.187300 180.000000 26.461001 -1.250703 -36.410567 30.395059 -3.526888 -0.958326 22.066862 -2.620276 -0.510996 11.027602 -1.334797 -0.128865 -11.960333 -3.937559 -9.906028 -2.898235 -26.537648 -1.283989 -2.867990 -9.076037 -4.148357 30.395059 -3.526888 -0.958326 22.066862 -2.620276 -0.510996 11.027602 -1.334797 -0.128865 30.395059 -3.526888 -0.958326 22.066862 -2.620276 -0.510996 11.027602 -1.334797 -0.128865 30.395059 -3.526888 -0.958326 22.066862 -2.620276 -0.510996 11.027602 -1.334797 -0.128865 -6.610598 -14.610675 0.925627 5.473400 7.725510 32.339366 -6.156886 1.822401 -4.344772 3.541243 2.077765 -36.607879 -4.636611 0.025114 -50.179607 4.161083 7.236393 26.653839 4.588805 1.716216 -8.340388 -0.000002 -0.000013 0.016503 
1.956190 91.333000 860.886740 2.227808 -2.802026 10.995409 0.851265 0.618784 3.139933 0.805205 1.640353 6.376984 0.803853 1.654734 6.373659 -1.893881 -1.060425 -3.564841 -6.949322 -0.609849 -11.046834 0.000000 0.000000 0.000000 0.000000 0.000000 0.000000 0.000000 0.000000 0.000000 -11.630872 2.618167 0.180113 -76.769926 -34.329776 55.388206 0.000027 -10.758800 0.000000 -4.124309 -4.655187 -13.823904 0.015976 -0.001928 -0.000001 -0.016009 0.001943 0.000011 -0.000002 0.000015 -0.000013 17.743500 5.976706 3.403502 3.753209 20.975802 6.013661 3.218063 8.184517 0.480126 -0.000004 0.000009 0.000003 -0.000037 -0.000008 -0.000002 -0.000002 0.000004 -0.000003 -0.000004 0.000009 0.000003 -0.000032 0.000006 -0.000008 -0.000002 0.000005 0.000002 0.510846 4.054290 0.018077 -0.510872 -4.054280 0.018080 -0.000002 0.000003 -0.000000 9.930935 -1.719275 0.308485 87.690320 57.569250 93.468248 179.999893 83.113600 179.999878 26.268001 -1.088019 -36.473136 30.395059 -3.526888 -0.958326 22.066862 -2.620276 -0.510996 11.027603 -1.334797 -0.128904 -11.960333 -3.937559 -9.906028 -2.898235 -26.537648 -1.283989 -2.867990 -9.076037 -4.148357 30.395059 -3.526888 -0.958326 22.066862 -2.620276 -0.510996 11.027603 -1.334797 -0.128904 30.395059 -3.526888 -0.958326 22.066862 -2.620276 -0.510996 11.027603 -1.334797 -0.128904 30.395059 -3.526888 -0.958326 22.066862 -2.620276 -0.510996 11.027603 -1.334797 -0.128904 -8.556758 -14.786699 0.746875 6.055874 7.765821 35.096841 -5.658284 2.486031 3.245478 3.166976 2.132708 -45.446697 -5.043647 -0.467857 -50.175791 5.189714 8.020448 29.844029 4.169952 1.965433 -3.620553 0.000002 -0.000008 -0.054185 
2.316040 90.863100 863.822460 2.964843 -3.280254 10.435489 0.441972 0.563718 3.272339 0.574633 1.610787 6.570228 0.574812 1.621723 6.567732 -2.083746 -0.981206 -3.514776 -6.879315 -0.406065 -11.075382 -0.000000 0.000000 -0.000000 -0.000000 0.000000 -0.000000 -0.000000 0.000000 -0.000000 -11.683960 2.687029 0.167226 -77.088324 -34.714102 55.484165 0.000009 -10.045000 -0.000003 -3.950152 -4.955731 -13.774803 0.015976 -0.001928 -0.000001 -0.016009 0.001943 0.000011 -0.000002 0.000015 -0.000013 17.743500 5.976706 3.403502 3.753209 20.975802 6.013661 3.218063 8.184517 0.480126 -0.000004 0.000009 0.000003 -0.000037 -0.000008 -0.000002 -0.000002 0.000004 -0.000003 -0.000004 0.000009 0.000003 -0.000032 0.000006 -0.000008 -0.000002 0.000005 0.000002 0.510846 4.054290 0.018077 -0.510872 -4.054280 0.018080 -0.000002 0.000003 -0.000000 9.920982 -1.608994 0.327215 87.335716 57.719396 93.095788 -179.999924 83.064700 -179.999924 26.071081 -0.898576 -36.558725 30.395059 -3.526888 -0.958326 22.066861 -2.620276 -0.510983 11.027602 -1.334807 -0.128862 -11.960333 -3.937559 -9.906028 -2.898235 -26.537648 -1.283989 -2.867990 -9.076037 -4.148357 30.395059 -3.526888 -0.958326 22.066861 -2.620276 -0.510983 11.027602 -1.334807 -0.128862 30.395059 -3.526888 -0.958326 22.066861 -2.620276 -0.510983 11.027602 -1.334807 -0.128862 30.395059 -3.526888 -0.958326 22.066861 -2.620276 -0.510983 11.027602 -1.334807 -0.128862 -10.391192 -14.317175 -0.733547 6.642274 7.167228 40.027399 -3.223610 2.557724 9.183708 2.047623 1.466914 -48.743202 -5.600307 -0.967679 -49.850186 5.852714 8.114275 32.740571 3.586984 2.158781 -0.297221 0.000000 -0.000007 -0.102648 
2.613190 90.373200 866.670780 3.749412 -3.617803 9.890999 0.001747 0.518181 3.403749 0.364517 1.551057 6.769322 0.365913 1.558669 6.767666 -2.276494 -0.908930 -3.467727 -6.785705 -0.244297 -11.137603 0.000000 0.000000 0.000000 0.000000 0.000000 0.000000 0.000000 0.000000 0.000000 -11.712288 2.739370 0.157177 -77.378812 -35.057662 55.512002 -0.000002 -9.437190 0.000008 -3.667482 -5.219919 -13.579388 0.015976 -0.001928 -0.000001 -0.016009 0.001943 0.000011 -0.000002 0.000015 -0.000013 17.743500 5.976706 3.403502 3.753209 20.975802 6.013661 3.218063 8.184517 0.480126 -0.000004 0.000009 0.000003 -0.000037 -0.000008 -0.000002 -0.000002 0.000004 -0.000003 -0.000004 0.000009 0.000003 -0.000032 0.000006 -0.000008 -0.000002 0.000005 0.000002 0.510846 4.054290 0.018077 -0.510872 -4.054280 0.018080 -0.000002 0.000003 -0.000000 9.919760 -1.535983 0.339862 87.009501 57.876205 92.742533 -179.999924 83.036600 -179.999954 25.856282 -0.697485 -36.658760 30.395059 -3.526888 -0.958326 22.066861 -2.620296 -0.510973 11.027602 -1.334827 -0.128852 -11.960333 -3.937559 -9.906028 -2.898235 -26.537648 -1.283989 -2.867990 -9.076037 -4.148357 30.395059 -3.526888 -0.958326 22.066861 -2.620296 -0.510973 11.027602 -1.334827 -0.128852 30.395059 -3.526888 -0.958326 22.066861 -2.620296 -0.510973 11.027602 -1.334827 -0.128852 30.395059 -3.526888 -0.958326 22.066861 -2.620296 -0.510973 11.027602 -1.334827 -0.128852 -12.013051 -13.471180 -2.614006 7.147993 6.481274 45.118431 -0.080402 1.763080 15.069703 1.118460 0.790275 -49.673920 -6.279076 -1.442572 -49.377065 6.310888 7.923696 35.461299 2.991405 2.327142 1.831041 0.000001 -0.000001 -0.109672 
